<?xml version="1.0" encoding="UTF-8" standalone="no"?>
<!DOCTYPE svg PUBLIC "-//W3C//DTD SVG 1.1//EN" "http://www.w3.org/Graphics/SVG/1.1/DTD/svg11.dtd">
<svg width="100%" height="100%" viewBox="0 0 2839 609" version="1.1" xmlns="http://www.w3.org/2000/svg" xmlns:xlink="http://www.w3.org/1999/xlink" xml:space="preserve" xmlns:serif="http://www.serif.com/" style="fill-rule:evenodd;clip-rule:evenodd;stroke-linejoin:round;stroke-miterlimit:2;">
    <g transform="matrix(1,0,0,1,-1073.68,-1486.77)">
        <g transform="matrix(4.16667,0,0,4.16667,0,0)">
            <g transform="matrix(1,0,0,1,375.749,432.625)">
                <path d="M0,-5.605L19.02,40.059C18.684,40.262 18.369,40.491 18.084,40.752L-8.943,18.228L0,-5.605ZM-15.042,29.741C-15.451,29.651 -15.874,29.6 -16.312,29.6C-18.684,29.6 -20.726,31.004 -21.66,33.026L-50.125,24.499L-37.654,2.674C-36.984,2.942 -36.25,3.093 -35.484,3.093C-33.964,3.093 -32.584,2.514 -31.537,1.57L-10.918,18.751L-15.042,29.741ZM-71.654,58.817C-72.327,58.548 -73.059,58.399 -73.827,58.399C-73.871,58.399 -73.918,58.405 -73.963,58.405L-80.859,17.03L-52.61,25.493L-71.654,58.817ZM-106.344,7.658C-106.307,7.402 -106.281,7.147 -106.278,6.885L-84.686,4.184L-82.939,14.668L-106.344,7.658ZM-94.053,-44.934C-93.709,-44.873 -93.358,-44.834 -92.998,-44.834C-92.953,-44.834 -92.906,-44.84 -92.862,-44.841L-87.197,-10.867L-107.778,2.854C-108.271,2.304 -108.865,1.845 -109.533,1.512L-94.053,-44.934ZM-60.244,-33.425C-60.442,-32.839 -60.552,-32.213 -60.552,-31.561C-60.552,-30.649 -60.339,-29.789 -59.969,-29.019L-85.678,-11.88L-91.217,-45.109C-89.96,-45.507 -88.885,-46.316 -88.15,-47.376L-60.244,-33.425ZM-28.752,-64.744C-28.377,-64.537 -27.976,-64.369 -27.555,-64.245L-31.629,-35.693L-48.995,-33.21C-49.276,-34.177 -49.793,-35.043 -50.488,-35.734L-28.752,-64.744ZM7.276,-43.986C6.814,-43.144 6.549,-42.175 6.549,-41.146L6.549,-41.144L-11.902,-38.51L-22.873,-64.848C-22.446,-65.103 -22.053,-65.405 -21.707,-65.756L7.276,-43.986ZM-30.406,-5.799L-7.66,-23.996L-0.934,-7.851L-10.297,17.1L-30.469,0.29C-29.912,-0.611 -29.587,-1.667 -29.587,-2.804C-29.587,-3.898 -29.889,-4.919 -30.406,-5.799M-41.168,-1.253C-40.827,-0.007 -40.091,1.075 -39.1,1.847L-51.765,24.006L-81.164,15.2L-83.035,3.979L-41.168,-1.253ZM7.371,-38.152L-6.978,-26.677L-11.24,-36.922L6.787,-39.498C6.924,-39.021 7.123,-38.57 7.371,-38.152M-12.946,-36.679L-8.328,-25.595L-31.449,-7.097C-32.117,-7.726 -32.928,-8.198 -33.832,-8.464L-30.157,-34.219L-12.946,-36.679ZM-25.896,-64.006C-25.383,-64.006 -24.885,-64.079 -24.408,-64.205L-13.605,-38.265L-29.911,-35.938L-25.902,-64.006L-25.896,-64.006ZM-85.377,-10.079L-59.045,-27.633C-57.965,-26.427 -56.4,-25.665 -54.654,-25.665C-51.396,-25.665 -48.756,-28.304 -48.756,-31.561L-48.756,-31.563L-31.873,-33.973L-35.484,-8.702C-38.705,-8.702 -41.32,-6.115 -41.376,-2.906L-83.31,2.335L-85.377,-10.079ZM-106.482,5.232C-106.58,4.887 -106.701,4.555 -106.854,4.239L-86.896,-9.065L-84.963,2.541L-106.482,5.232ZM-0.08,-10.128L-6.31,-25.078L8.41,-36.853C8.773,-36.512 9.175,-36.212 9.617,-35.972L-0.08,-10.128ZM22.031,39.226C21.521,39.226 21.028,39.297 20.557,39.419L0.857,-7.883L11.175,-35.389C11.588,-35.3 12.012,-35.248 12.445,-35.248C15.704,-35.248 18.344,-37.888 18.344,-41.146C18.344,-44.404 15.704,-47.044 12.445,-47.044C10.818,-47.044 9.348,-46.386 8.277,-45.319L-20.712,-67.092C-20.259,-67.928 -20.002,-68.884 -20.002,-69.904C-20.002,-73.161 -22.643,-75.8 -25.896,-75.8C-29.152,-75.8 -31.796,-73.161 -31.796,-69.904C-31.796,-68.282 -31.142,-66.816 -30.08,-65.749L-51.82,-36.734C-52.661,-37.195 -53.628,-37.459 -54.654,-37.459C-56.666,-37.459 -58.437,-36.452 -59.5,-34.916L-87.405,-48.869C-87.212,-49.455 -87.102,-50.08 -87.102,-50.733C-87.102,-53.99 -89.741,-56.629 -92.998,-56.629C-96.254,-56.629 -98.896,-53.99 -98.896,-50.733C-98.896,-48.423 -97.564,-46.429 -95.635,-45.46L-111.114,0.984C-111.457,0.922 -111.81,0.883 -112.17,0.883C-115.428,0.883 -118.066,3.525 -118.066,6.782C-118.066,10.039 -115.428,12.679 -112.17,12.679C-109.796,12.679 -107.754,11.274 -106.818,9.253L-82.636,16.499L-75.604,58.674C-77.992,59.429 -79.721,61.661 -79.721,64.297C-79.721,67.553 -77.083,70.195 -73.827,70.195C-70.566,70.195 -67.932,67.553 -67.932,64.297C-67.932,62.405 -68.825,60.725 -70.21,59.647L-50.973,25.984L-22.136,34.621C-22.181,34.907 -22.209,35.199 -22.209,35.499C-22.209,38.756 -19.57,41.395 -16.312,41.395C-13.055,41.395 -10.414,38.756 -10.414,35.499C-10.414,33.267 -11.65,31.325 -13.48,30.323L-9.562,19.88L17.018,42.03C16.462,42.93 16.133,43.99 16.133,45.124C16.133,48.381 18.774,51.021 22.031,51.021C25.288,51.021 27.93,48.381 27.93,45.124C27.93,41.867 25.288,39.226 22.031,39.226" style="fill:rgb(35,31,32);fill-rule:nonzero;"/>
            </g>
        </g>
        <g transform="matrix(4.16667,0,0,4.16667,0,0)">
            <g transform="matrix(1,0,0,1,436.12,458.635)">
                <path d="M0,-57.55L41.214,-57.55L41.214,-47.651L11.674,-47.651L11.674,-33.807L36.704,-33.807L36.704,-23.826L11.674,-23.826L11.674,0L0,0L0,-57.55Z" style="fill:rgb(35,31,32);fill-rule:nonzero;"/>
            </g>
        </g>
        <g transform="matrix(4.16667,0,0,4.16667,0,0)">
            <g transform="matrix(1,0,0,1,501.203,431.829)">
                <path d="M0,12.238L0,6.038C-1.927,7.166 -4.907,7.808 -7.646,8.453C-13.36,9.739 -16.177,11.029 -16.177,14.893C-16.177,18.756 -13.601,20.123 -9.737,20.123C-3.46,20.123 0,16.26 0,12.238M-0.079,22.217L-0.239,22.217C-2.331,25.355 -5.31,27.771 -12.394,27.771C-20.846,27.771 -26.802,23.342 -26.802,15.133C-26.802,6.038 -19.396,3.142 -10.22,1.854C-3.379,0.887 -0.239,0.324 -0.239,-2.816C-0.239,-5.793 -2.573,-7.725 -7.163,-7.725C-12.313,-7.725 -14.81,-5.873 -15.129,-1.929L-24.87,-1.929C-24.547,-9.175 -19.155,-15.533 -7.082,-15.533C5.315,-15.533 10.305,-9.979 10.305,-0.321L10.305,20.687C10.305,23.827 10.787,25.677 11.753,26.402L11.753,26.805L1.211,26.805C0.565,26.001 0.162,24.068 -0.079,22.217" style="fill:rgb(35,31,32);fill-rule:nonzero;"/>
            </g>
        </g>
        <g transform="matrix(4.16667,0,0,4.16667,0,0)">
            <g transform="matrix(1,0,0,1,545.796,422.897)">
                <path d="M0,15.131C0,7.485 -3.057,2.174 -9.173,2.174C-16.098,2.174 -18.672,7.727 -18.672,15.372C-18.672,22.94 -14.888,27.768 -8.77,27.768C-3.137,27.768 0,23.1 0,15.131M-18.672,30.587L-18.833,30.587L-18.833,35.737L-29.377,35.737L-29.377,-21.812L-18.43,-21.812L-18.43,-0.564L-18.188,-0.564C-15.936,-4.025 -12.395,-6.681 -6.68,-6.681C3.703,-6.681 11.107,2.253 11.107,15.131C11.107,28.492 4.025,36.943 -6.357,36.943C-12.155,36.943 -16.26,34.448 -18.672,30.587" style="fill:rgb(35,31,32);fill-rule:nonzero;"/>
            </g>
        </g>
        <g transform="matrix(4.16667,0,0,4.16667,0,0)">
            <g transform="matrix(1,0,0,1,2.63091,-144.811)">
                <path d="M557.335,562.153L568.28,562.153L568.28,603.446L557.335,603.446L557.335,562.153ZM557.335,545.896L568.28,545.896L568.28,555.714L557.335,555.714L557.335,545.896Z" style="fill:rgb(35,31,32);fill-rule:nonzero;"/>
            </g>
        </g>
        <g transform="matrix(4.16667,0,0,4.16667,0,0)">
            <g transform="matrix(1,0,0,1,606.005,438.028)">
                <path d="M0,0C0,-8.047 -3.783,-13.521 -10.464,-13.521C-17.227,-13.521 -20.926,-8.047 -20.926,0C-20.926,8.048 -17.227,13.443 -10.464,13.443C-3.783,13.443 0,8.048 0,0M-32.034,0C-32.034,-12.314 -23.263,-21.812 -10.464,-21.812C2.333,-21.812 11.105,-12.314 11.105,0C11.105,12.316 2.333,21.812 -10.464,21.812C-23.263,21.812 -32.034,12.316 -32.034,0" style="fill:rgb(35,31,32);fill-rule:nonzero;"/>
            </g>
        </g>
        <g transform="matrix(4.16667,0,0,4.16667,0,0)">
            <g transform="matrix(1,0,0,1,697.637,431.822)">
                <path d="M0,12.233L0,6.036C-1.933,7.163 -4.91,7.806 -7.646,8.451C-13.36,9.738 -16.177,11.027 -16.177,14.889C-16.177,18.751 -13.601,20.119 -9.738,20.119C-3.461,20.119 0,16.257 0,12.233M-0.082,22.21L-0.246,22.21C-2.335,25.348 -5.314,27.763 -12.394,27.763C-20.843,27.763 -26.796,23.336 -26.796,15.129C-26.796,6.036 -19.394,3.141 -10.219,1.854C-3.38,0.886 -0.246,0.326 -0.246,-2.815C-0.246,-5.791 -2.576,-7.722 -7.161,-7.722C-12.313,-7.722 -14.808,-5.873 -15.132,-1.929L-24.865,-1.929C-24.543,-9.172 -19.151,-15.53 -7.083,-15.53C5.31,-15.53 10.3,-9.977 10.3,-0.321L10.3,20.681C10.3,23.819 10.782,25.671 11.749,26.395L11.749,26.798L1.206,26.798C0.562,25.993 0.159,24.062 -0.082,22.21" style="fill:rgb(35,31,32);fill-rule:nonzero;"/>
            </g>
        </g>
        <g transform="matrix(4.16667,0,0,4.16667,0,0)">
            <g transform="matrix(1,0,0,1,712.846,457.494)">
                <path d="M0,-40.155L10.538,-40.155L10.538,-34.604L10.78,-34.604C13.034,-38.384 17.058,-41.281 22.77,-41.281C28.002,-41.281 32.188,-38.384 34.194,-34.04L34.361,-34.04C37.174,-38.544 41.52,-41.281 46.75,-41.281C55.438,-41.281 60.35,-35.649 60.35,-26.635L60.35,1.126L49.405,1.126L49.405,-24.786C49.405,-29.454 47.07,-31.866 43.049,-31.866C38.464,-31.866 35.645,-28.326 35.645,-22.854L35.645,1.126L24.703,1.126L24.703,-24.786C24.703,-29.454 22.367,-31.866 18.345,-31.866C13.919,-31.866 10.942,-28.326 10.942,-22.854L10.942,1.126L0,1.126L0,-40.155Z" style="fill:rgb(35,31,32);fill-rule:nonzero;"/>
            </g>
        </g>
        <g transform="matrix(4.16667,0,0,4.16667,0,0)">
            <g transform="matrix(1,0,0,1,802.732,431.822)">
                <path d="M0,12.233L0,6.036C-1.935,7.163 -4.91,7.806 -7.646,8.451C-13.359,9.738 -16.178,11.027 -16.178,14.889C-16.178,18.751 -13.602,20.119 -9.734,20.119C-3.461,20.119 0,16.257 0,12.233M-0.083,22.21L-0.242,22.21C-2.334,25.348 -5.312,27.763 -12.396,27.763C-20.842,27.763 -26.797,23.336 -26.797,15.129C-26.797,6.036 -19.395,3.141 -10.22,1.854C-3.383,0.886 -0.242,0.326 -0.242,-2.815C-0.242,-5.791 -2.576,-7.722 -7.165,-7.722C-12.313,-7.722 -14.808,-5.873 -15.13,-1.929L-24.865,-1.929C-24.547,-9.172 -19.152,-15.53 -7.082,-15.53C5.31,-15.53 10.298,-9.977 10.298,-0.321L10.298,20.681C10.298,23.819 10.779,25.671 11.747,26.395L11.747,26.798L1.206,26.798C0.56,25.993 0.158,24.062 -0.083,22.21" style="fill:rgb(35,31,32);fill-rule:nonzero;"/>
            </g>
        </g>
        <g transform="matrix(4.16667,0,0,4.16667,0,0)">
            <g transform="matrix(1,0,0,1,828.641,451.861)">
                <path d="M0,-28.889L0.243,-28.889C3.059,-33.312 6.841,-35.648 12.472,-35.648C21.003,-35.648 26.715,-29.211 26.715,-20.197L26.715,6.759L15.771,6.759L15.771,-18.588C15.771,-23.015 13.196,-26.153 8.612,-26.153C3.78,-26.153 0.243,-22.291 0.243,-16.659L0.243,6.759L-10.701,6.759L-10.701,-34.522L0,-34.522L0,-28.889Z" style="fill:rgb(35,31,32);fill-rule:nonzero;"/>
            </g>
        </g>
        <g transform="matrix(4.16667,0,0,4.16667,0,0)">
            <g transform="matrix(1,0,0,1,870.81,451.861)">
                <path d="M0,-28.889L0.239,-28.889C3.058,-33.312 6.84,-35.648 12.471,-35.648C21.002,-35.648 26.714,-29.211 26.714,-20.197L26.714,6.759L15.771,6.759L15.771,-18.588C15.771,-23.015 13.195,-26.153 8.606,-26.153C3.782,-26.153 0.239,-22.291 0.239,-16.659L0.239,6.759L-10.704,6.759L-10.704,-34.522L0,-34.522L0,-28.889Z" style="fill:rgb(35,31,32);fill-rule:nonzero;"/>
            </g>
        </g>
        <g transform="matrix(4.16667,0,0,4.16667,0,0)">
            <g transform="matrix(1,0,0,1,927.06,431.822)">
                <path d="M0,12.233L0,6.036C-1.936,7.163 -4.91,7.806 -7.646,8.451C-13.36,9.738 -16.18,11.027 -16.18,14.889C-16.18,18.751 -13.604,20.119 -9.735,20.119C-3.462,20.119 0,16.257 0,12.233M-0.086,22.21L-0.245,22.21C-2.337,25.348 -5.315,27.763 -12.396,27.763C-20.843,27.763 -26.797,23.336 -26.797,15.129C-26.797,6.036 -19.396,3.141 -10.224,1.854C-3.383,0.886 -0.245,0.326 -0.245,-2.815C-0.245,-5.791 -2.574,-7.722 -7.163,-7.722C-12.315,-7.722 -14.81,-5.873 -15.133,-1.929L-24.865,-1.929C-24.547,-9.172 -19.154,-15.53 -7.085,-15.53C5.307,-15.53 10.298,-9.977 10.298,-0.321L10.298,20.681C10.298,23.819 10.78,25.671 11.745,26.395L11.745,26.798L1.203,26.798C0.562,25.993 0.157,24.062 -0.086,22.21" style="fill:rgb(35,31,32);fill-rule:nonzero;"/>
            </g>
        </g>
        <g transform="matrix(4.16667,0,0,4.16667,0,0)">
            <g transform="matrix(1,0,0,1,669.261,410.823)">
                <path d="M0,38.059L-25.025,38.059L-25.025,-9.738L-36.692,-9.738L-36.692,47.797L0,47.797L0,38.059Z" style="fill:rgb(35,31,32);fill-rule:nonzero;"/>
            </g>
        </g>
    </g>
</svg>
